<?xml version="1.0" standalone="no"?>
<!DOCTYPE svg PUBLIC "-//W3C//DTD SVG 20010904//EN"
 "http://www.w3.org/TR/2001/REC-SVG-20010904/DTD/svg10.dtd">
<svg version="1.0" xmlns="http://www.w3.org/2000/svg"
 width="800.000000pt" height="800.000000pt" viewBox="0 0 800.000000 800.000000"
 preserveAspectRatio="xMidYMid meet">

<g transform="translate(0.000000,800.000000) scale(0.100000,-0.100000)"
fill="#000000" stroke="none">
<path d="M0 4000 l0 -4000 4000 0 4000 0 0 4000 0 4000 -4000 0 -4000 0 0
-4000z m4190 1510 c455 -27 834 -113 1149 -261 148 -70 262 -149 371 -258 202
-202 246 -398 140 -618 -32 -66 -59 -102 -128 -172 -428 -436 -1447 -642
-2372 -480 -352 62 -690 185 -897 328 -167 114 -296 265 -339 397 -42 131 -12
294 80 433 155 232 574 459 1011 547 243 49 511 84 639 84 44 0 78 5 82 11 4
7 23 9 53 5 25 -3 120 -10 211 -16z m-3288 -2417 l3 -148 258 -3 257 -2 0 150
0 150 115 0 115 0 0 -379 c0 -209 -3 -382 -7 -384 -5 -2 -56 -2 -115 1 l-108
5 0 153 0 154 -260 0 -259 0 -3 -157 -3 -158 -105 3 c-58 2 -107 5 -109 8 -7
6 -11 664 -4 712 l5 42 109 0 108 0 3 -147z m1167 -8 c68 -85 125 -155 127
-155 1 0 57 70 124 155 l122 155 115 0 c91 0 113 -3 106 -12 -6 -7 -92 -116
-192 -242 l-181 -228 0 -138 0 -137 -79 -7 c-43 -3 -86 -3 -95 0 -14 5 -16 26
-16 144 l0 138 -190 237 c-104 131 -190 239 -190 241 0 2 51 4 113 4 l112 0
124 -155z m915 -153 l-1 -302 24 -6 c12 -3 128 -5 257 -3 176 3 238 7 248 17
10 10 14 82 16 307 l3 295 125 0 125 0 -3 -328 c-3 -293 -5 -331 -21 -355 -26
-41 -59 -57 -134 -68 -76 -11 -774 -22 -840 -12 l-43 5 0 379 0 380 122 -3
123 -3 -1 -303z m1773 285 c66 -35 68 -46 71 -403 3 -256 1 -322 -10 -330 -7
-5 -59 -8 -115 -6 l-103 3 -1 282 c-1 155 -4 293 -8 307 l-7 25 -242 3 -242 2
0 -309 c0 -279 -2 -309 -17 -315 -9 -4 -61 -4 -115 0 l-98 7 0 379 0 379 428
-3 c386 -3 430 -5 459 -21z m1049 8 c29 -8 62 -28 79 -45 l30 -31 3 -257 c2
-141 1 -267 -3 -279 -14 -58 -104 -122 -172 -123 -17 0 -34 -4 -37 -8 -3 -5
-175 -8 -383 -7 l-378 2 -3 381 -2 382 408 0 c331 0 418 -3 458 -15z m1214
-365 l0 -379 -32 -6 c-18 -3 -69 -5 -113 -3 l-80 3 -3 113 -3 112 -269 0 -270
0 0 -104 c0 -69 -4 -107 -12 -112 -6 -4 -55 -9 -107 -12 -79 -4 -99 -2 -109
11 -10 12 -13 84 -10 329 3 277 5 317 21 345 17 32 55 58 107 74 14 4 217 8
453 8 l427 1 0 -380z m304 -5 c1 -367 0 -380 -18 -383 -11 -2 -61 -1 -113 3
l-93 7 0 379 0 380 112 -3 111 -3 1 -380z"/>
<path d="M3933 5356 c-131 -43 -261 -198 -319 -382 -13 -41 -24 -91 -24 -112
0 -54 29 -103 75 -129 62 -35 203 -32 360 7 354 90 669 218 892 362 101 65
124 91 101 114 -17 18 -214 68 -368 95 -277 48 -640 71 -717 45z"/>
<path d="M3305 5303 c-11 -2 -71 -16 -133 -29 -158 -35 -307 -86 -447 -154
-156 -75 -257 -143 -337 -229 -189 -199 -188 -416 2 -611 81 -84 199 -163 238
-158 24 3 37 21 115 173 217 419 390 690 585 913 38 44 61 79 58 88 -5 14 -39
17 -81 7z"/>
<path d="M5344 5048 c-6 -7 -47 -85 -91 -173 -162 -322 -353 -629 -514 -823
-143 -173 -134 -161 -121 -174 22 -22 282 35 487 108 101 36 286 127 363 178
74 49 164 135 206 195 52 74 76 148 76 236 0 71 -4 89 -34 152 -75 157 -326
360 -372 301z"/>
<path d="M4020 4450 c-95 -21 -424 -127 -570 -185 -137 -54 -272 -124 -378
-195 -74 -50 -92 -66 -92 -86 0 -30 13 -35 180 -76 256 -61 601 -103 795 -96
97 3 117 7 165 32 79 41 157 126 212 231 105 204 104 326 -5 375 -55 25 -189
25 -307 0z"/>
<path d="M5170 2865 l0 -235 235 0 236 0 24 25 c25 24 25 26 25 210 0 184 0
186 -25 210 l-24 25 -236 0 -235 0 0 -235z"/>
<path d="M6266 3084 c-13 -12 -16 -39 -16 -125 l0 -109 270 0 270 0 0 125 0
125 -254 0 c-218 0 -257 -2 -270 -16z"/>
</g>
</svg>
