<?xml version="1.0" standalone="no"?>
<!DOCTYPE svg PUBLIC "-//W3C//DTD SVG 20010904//EN"
 "http://www.w3.org/TR/2001/REC-SVG-20010904/DTD/svg10.dtd">
<svg version="1.0" xmlns="http://www.w3.org/2000/svg"
 width="800.000000pt" height="800.000000pt" viewBox="0 0 800.000000 800.000000"
 preserveAspectRatio="xMidYMid meet">

<g transform="translate(0.000000,800.000000) scale(0.100000,-0.100000)"
fill="#000000" stroke="none">
<path d="M0 4000 l0 -4000 4000 0 4000 0 0 4000 0 4000 -4000 0 -4000 0 0
-4000z m7198 3709 l2 -187 -82 -7 c-269 -23 -444 -103 -559 -256 -31 -41 -72
-118 -113 -214 -136 -320 -299 -704 -436 -1025 -78 -184 -206 -486 -285 -670
-78 -184 -187 -438 -240 -565 -54 -126 -137 -322 -185 -435 -118 -278 -280
-659 -593 -1395 l-263 -620 -362 -3 -362 -2 -158 316 -158 316 -71 -188 c-150
-398 -293 -783 -293 -789 0 -3 586 -4 1303 -2 1474 3 1366 -3 1552 86 304 145
580 473 837 997 l91 184 199 0 c156 0 199 -3 195 -12 -5 -12 -454 -967 -554
-1178 -25 -52 -58 -122 -73 -155 -15 -33 -51 -108 -78 -167 l-51 -108 -2736 0
c-1504 0 -2735 4 -2735 8 0 12 121 326 129 334 3 4 105 12 226 18 221 11 427
36 540 66 91 25 216 88 263 133 32 31 46 57 66 118 22 70 197 542 542 1463 63
167 114 311 114 318 0 7 -48 116 -107 240 -58 125 -125 268 -148 317 -24 50
-113 241 -200 425 -87 184 -174 371 -195 415 -21 44 -125 267 -233 495 -107
228 -248 528 -312 665 -225 479 -222 474 -289 541 -95 94 -241 153 -421 169
-38 3 -94 8 -123 11 l-52 5 2 207 3 207 960 0 960 0 3 -199 c1 -110 -1 -203
-6 -208 -5 -5 -47 -13 -94 -18 -207 -24 -243 -84 -148 -249 27 -47 97 -189
156 -316 193 -419 565 -1218 619 -1332 29 -62 56 -121 60 -132 3 -12 9 -21 13
-21 4 0 49 118 100 263 99 278 157 439 254 707 32 91 63 186 68 211 13 68 -2
118 -49 160 -47 42 -85 55 -205 68 -49 6 -90 12 -92 14 -2 2 24 81 58 175 l62
172 994 0 c791 0 993 -3 989 -12 -2 -7 -30 -83 -62 -168 -32 -85 -61 -158 -64
-162 -3 -3 -69 -12 -146 -18 -278 -24 -427 -88 -500 -214 -13 -23 -82 -203
-155 -401 -146 -398 -169 -461 -263 -715 -224 -605 -448 -1231 -445 -1244 6
-28 443 -986 450 -986 3 0 10 12 16 28 5 15 53 131 107 257 53 127 154 363
222 525 69 162 138 324 153 360 15 36 71 166 123 290 158 375 510 1204 862
2035 70 165 137 323 148 350 12 28 38 80 58 116 53 94 74 169 59 215 -36 109
-159 163 -412 179 l-108 7 0 189 0 189 828 -2 827 -3 3 -186z m-508 -6974 c75
-77 188 -196 253 -264 l117 -124 0 251 0 252 45 0 45 0 0 -359 0 -360 -242
251 c-134 138 -247 256 -251 264 -22 39 -27 0 -27 -236 l0 -250 -45 0 -45 0 0
361 c0 198 4 359 8 357 4 -1 68 -66 142 -143z m-5075 120 c114 -30 216 -119
255 -221 28 -75 27 -184 -1 -261 -31 -80 -123 -173 -202 -202 -78 -29 -195
-29 -272 0 -73 27 -156 104 -192 177 -25 51 -28 68 -28 157 0 120 20 171 100
251 100 100 210 132 340 99z m1441 0 c32 -9 63 -28 88 -54 l39 -40 -34 -20
c-42 -26 -42 -26 -64 -1 -54 60 -182 43 -200 -27 -13 -54 10 -79 120 -133 159
-78 209 -149 185 -264 -21 -102 -102 -166 -210 -166 -77 0 -115 16 -162 68
-32 36 -68 115 -57 126 2 2 22 7 44 10 40 7 40 7 55 -36 19 -53 67 -88 123
-88 32 0 46 7 78 39 34 34 39 45 39 84 0 64 -31 96 -144 150 -104 50 -151 96
-161 157 -14 82 38 166 121 195 51 18 79 18 140 0z m3174 -10 c57 -19 135 -78
177 -133 70 -93 84 -254 30 -364 -36 -74 -117 -149 -190 -176 -79 -30 -195
-30 -274 -1 -81 30 -172 122 -203 204 -28 77 -25 204 7 276 75 168 277 255
453 194z m-5280 -300 l0 -305 105 0 105 0 0 -40 0 -40 -150 0 -150 0 0 345 0
345 45 0 45 0 0 -305z m1102 58 c3 -228 5 -251 24 -287 29 -56 63 -79 126 -83
69 -5 114 19 148 78 25 43 25 49 28 292 l4 247 45 0 44 0 -3 -257 c-4 -285 -7
-305 -71 -372 -47 -50 -100 -71 -180 -71 -107 0 -181 43 -230 135 -21 38 -22
56 -25 303 l-3 262 45 0 44 0 4 -247z m618 -98 l0 -345 -45 0 -45 0 0 345 0
345 45 0 45 0 0 -345z m983 158 c42 -104 86 -214 98 -245 12 -32 25 -58 28
-58 3 0 50 109 103 243 l97 242 52 3 c39 2 50 0 46 -10 -79 -199 -292 -708
-297 -708 -3 0 -27 51 -53 113 -204 495 -247 599 -247 603 0 2 22 4 49 4 l48
0 76 -187z m558 75 c2 -390 14 -453 93 -489 96 -43 193 -4 225 90 7 22 11 121
11 272 l0 239 45 0 45 0 0 -247 c0 -140 -5 -264 -10 -285 -6 -21 -25 -56 -43
-80 -89 -116 -288 -124 -385 -14 -63 72 -65 85 -70 369 l-4 257 46 0 46 0 1
-112z m629 -233 l0 -345 -50 0 -50 0 0 345 0 345 50 0 50 0 0 -345z m890 305
l0 -40 -80 0 -80 0 0 -305 0 -305 -45 0 -45 0 0 305 0 305 -165 0 -165 0 0
-305 0 -305 -45 0 -45 0 0 305 0 305 -85 0 -85 0 0 40 0 40 420 0 420 0 0 -40z"/>
<path d="M1463 770 c-145 -34 -234 -193 -193 -342 17 -61 71 -128 127 -160
217 -123 460 81 389 326 -39 133 -181 210 -323 176z"/>
<path d="M6020 765 c-62 -19 -123 -74 -154 -137 -20 -41 -26 -67 -26 -120 0
-111 46 -191 142 -244 46 -25 63 -29 128 -29 87 1 133 20 191 82 50 52 70 96
76 162 14 157 -96 288 -250 297 -37 2 -80 -2 -107 -11z"/>
</g>
</svg>
